<mxfile host="app.diagrams.net" modified="2023-03-14T09:08:43.568Z" agent="5.0 (Windows NT 10.0; Win64; x64) AppleWebKit/537.36 (KHTML, like Gecko) Chrome/111.0.0.0 Safari/537.36" etag="GcpKV6GqR3SYxhpC5Rtd" version="21.0.6" type="github">
  <diagram name="第 1 页" id="f9lIStY68VFxgaeeXOex">
    <mxGraphModel dx="1252" dy="1884" grid="1" gridSize="10" guides="1" tooltips="1" connect="1" arrows="1" fold="1" page="1" pageScale="1" pageWidth="827" pageHeight="1169" math="0" shadow="0">
      <root>
        <mxCell id="0" />
        <mxCell id="1" parent="0" />
        <mxCell id="gao_oj5QHQ_gCxG6J7-x-1" value="" style="rounded=0;whiteSpace=wrap;html=1;fontSize=17;" vertex="1" parent="1">
          <mxGeometry x="120" y="-510" width="940" height="640" as="geometry" />
        </mxCell>
        <mxCell id="gao_oj5QHQ_gCxG6J7-x-2" value="" style="shape=table;startSize=0;container=1;collapsible=0;childLayout=tableLayout;" vertex="1" parent="1">
          <mxGeometry x="120" y="-510" width="670" height="640" as="geometry" />
        </mxCell>
        <mxCell id="gao_oj5QHQ_gCxG6J7-x-3" value="" style="shape=tableRow;horizontal=0;startSize=0;swimlaneHead=0;swimlaneBody=0;strokeColor=inherit;top=0;left=0;bottom=0;right=0;collapsible=0;dropTarget=0;fillColor=none;points=[[0,0.5],[1,0.5]];portConstraint=eastwest;" vertex="1" parent="gao_oj5QHQ_gCxG6J7-x-2">
          <mxGeometry width="670" height="40" as="geometry" />
        </mxCell>
        <mxCell id="gao_oj5QHQ_gCxG6J7-x-4" value="" style="shape=partialRectangle;html=1;whiteSpace=wrap;connectable=0;strokeColor=inherit;overflow=hidden;fillColor=none;top=0;left=0;bottom=0;right=0;pointerEvents=1;" vertex="1" parent="gao_oj5QHQ_gCxG6J7-x-3">
          <mxGeometry width="100" height="40" as="geometry">
            <mxRectangle width="100" height="40" as="alternateBounds" />
          </mxGeometry>
        </mxCell>
        <mxCell id="gao_oj5QHQ_gCxG6J7-x-5" value="目标1" style="shape=partialRectangle;html=1;whiteSpace=wrap;connectable=0;strokeColor=inherit;overflow=hidden;fillColor=none;top=0;left=0;bottom=0;right=0;pointerEvents=1;" vertex="1" parent="gao_oj5QHQ_gCxG6J7-x-3">
          <mxGeometry x="100" width="299" height="40" as="geometry">
            <mxRectangle width="299" height="40" as="alternateBounds" />
          </mxGeometry>
        </mxCell>
        <mxCell id="gao_oj5QHQ_gCxG6J7-x-6" value="目标2" style="shape=partialRectangle;html=1;whiteSpace=wrap;connectable=0;strokeColor=inherit;overflow=hidden;fillColor=none;top=0;left=0;bottom=0;right=0;pointerEvents=1;" vertex="1" parent="gao_oj5QHQ_gCxG6J7-x-3">
          <mxGeometry x="399" width="271" height="40" as="geometry">
            <mxRectangle width="271" height="40" as="alternateBounds" />
          </mxGeometry>
        </mxCell>
        <mxCell id="gao_oj5QHQ_gCxG6J7-x-7" value="" style="shape=tableRow;horizontal=0;startSize=0;swimlaneHead=0;swimlaneBody=0;strokeColor=inherit;top=0;left=0;bottom=0;right=0;collapsible=0;dropTarget=0;fillColor=none;points=[[0,0.5],[1,0.5]];portConstraint=eastwest;" vertex="1" parent="gao_oj5QHQ_gCxG6J7-x-2">
          <mxGeometry y="40" width="670" height="40" as="geometry" />
        </mxCell>
        <mxCell id="gao_oj5QHQ_gCxG6J7-x-8" value="侦察" style="shape=partialRectangle;html=1;whiteSpace=wrap;connectable=0;strokeColor=inherit;overflow=hidden;fillColor=none;top=0;left=0;bottom=0;right=0;pointerEvents=1;" vertex="1" parent="gao_oj5QHQ_gCxG6J7-x-7">
          <mxGeometry width="100" height="40" as="geometry">
            <mxRectangle width="100" height="40" as="alternateBounds" />
          </mxGeometry>
        </mxCell>
        <mxCell id="gao_oj5QHQ_gCxG6J7-x-9" value="" style="shape=partialRectangle;html=1;whiteSpace=wrap;connectable=0;strokeColor=inherit;overflow=hidden;fillColor=none;top=0;left=0;bottom=0;right=0;pointerEvents=1;" vertex="1" parent="gao_oj5QHQ_gCxG6J7-x-7">
          <mxGeometry x="100" width="299" height="40" as="geometry">
            <mxRectangle width="299" height="40" as="alternateBounds" />
          </mxGeometry>
        </mxCell>
        <mxCell id="gao_oj5QHQ_gCxG6J7-x-10" value="" style="shape=partialRectangle;html=1;whiteSpace=wrap;connectable=0;strokeColor=inherit;overflow=hidden;fillColor=none;top=0;left=0;bottom=0;right=0;pointerEvents=1;" vertex="1" parent="gao_oj5QHQ_gCxG6J7-x-7">
          <mxGeometry x="399" width="271" height="40" as="geometry">
            <mxRectangle width="271" height="40" as="alternateBounds" />
          </mxGeometry>
        </mxCell>
        <mxCell id="gao_oj5QHQ_gCxG6J7-x-11" value="" style="shape=tableRow;horizontal=0;startSize=0;swimlaneHead=0;swimlaneBody=0;strokeColor=inherit;top=0;left=0;bottom=0;right=0;collapsible=0;dropTarget=0;fillColor=none;points=[[0,0.5],[1,0.5]];portConstraint=eastwest;" vertex="1" parent="gao_oj5QHQ_gCxG6J7-x-2">
          <mxGeometry y="80" width="670" height="40" as="geometry" />
        </mxCell>
        <mxCell id="gao_oj5QHQ_gCxG6J7-x-12" value="攻击资源筹备" style="shape=partialRectangle;html=1;whiteSpace=wrap;connectable=0;strokeColor=inherit;overflow=hidden;fillColor=none;top=0;left=0;bottom=0;right=0;pointerEvents=1;" vertex="1" parent="gao_oj5QHQ_gCxG6J7-x-11">
          <mxGeometry width="100" height="40" as="geometry">
            <mxRectangle width="100" height="40" as="alternateBounds" />
          </mxGeometry>
        </mxCell>
        <mxCell id="gao_oj5QHQ_gCxG6J7-x-13" value="" style="shape=partialRectangle;html=1;whiteSpace=wrap;connectable=0;strokeColor=inherit;overflow=hidden;fillColor=none;top=0;left=0;bottom=0;right=0;pointerEvents=1;" vertex="1" parent="gao_oj5QHQ_gCxG6J7-x-11">
          <mxGeometry x="100" width="299" height="40" as="geometry">
            <mxRectangle width="299" height="40" as="alternateBounds" />
          </mxGeometry>
        </mxCell>
        <mxCell id="gao_oj5QHQ_gCxG6J7-x-14" value="" style="shape=partialRectangle;html=1;whiteSpace=wrap;connectable=0;strokeColor=inherit;overflow=hidden;fillColor=none;top=0;left=0;bottom=0;right=0;pointerEvents=1;" vertex="1" parent="gao_oj5QHQ_gCxG6J7-x-11">
          <mxGeometry x="399" width="271" height="40" as="geometry">
            <mxRectangle width="271" height="40" as="alternateBounds" />
          </mxGeometry>
        </mxCell>
        <mxCell id="gao_oj5QHQ_gCxG6J7-x-15" value="" style="shape=tableRow;horizontal=0;startSize=0;swimlaneHead=0;swimlaneBody=0;strokeColor=inherit;top=0;left=0;bottom=0;right=0;collapsible=0;dropTarget=0;fillColor=none;points=[[0,0.5],[1,0.5]];portConstraint=eastwest;" vertex="1" parent="gao_oj5QHQ_gCxG6J7-x-2">
          <mxGeometry y="120" width="670" height="40" as="geometry" />
        </mxCell>
        <mxCell id="gao_oj5QHQ_gCxG6J7-x-16" value="入口点" style="shape=partialRectangle;html=1;whiteSpace=wrap;connectable=0;strokeColor=inherit;overflow=hidden;fillColor=none;top=0;left=0;bottom=0;right=0;pointerEvents=1;" vertex="1" parent="gao_oj5QHQ_gCxG6J7-x-15">
          <mxGeometry width="100" height="40" as="geometry">
            <mxRectangle width="100" height="40" as="alternateBounds" />
          </mxGeometry>
        </mxCell>
        <mxCell id="gao_oj5QHQ_gCxG6J7-x-17" value="" style="shape=partialRectangle;html=1;whiteSpace=wrap;connectable=0;strokeColor=inherit;overflow=hidden;fillColor=none;top=0;left=0;bottom=0;right=0;pointerEvents=1;" vertex="1" parent="gao_oj5QHQ_gCxG6J7-x-15">
          <mxGeometry x="100" width="299" height="40" as="geometry">
            <mxRectangle width="299" height="40" as="alternateBounds" />
          </mxGeometry>
        </mxCell>
        <mxCell id="gao_oj5QHQ_gCxG6J7-x-18" value="" style="shape=partialRectangle;html=1;whiteSpace=wrap;connectable=0;strokeColor=inherit;overflow=hidden;fillColor=none;top=0;left=0;bottom=0;right=0;pointerEvents=1;" vertex="1" parent="gao_oj5QHQ_gCxG6J7-x-15">
          <mxGeometry x="399" width="271" height="40" as="geometry">
            <mxRectangle width="271" height="40" as="alternateBounds" />
          </mxGeometry>
        </mxCell>
        <mxCell id="gao_oj5QHQ_gCxG6J7-x-19" value="" style="shape=tableRow;horizontal=0;startSize=0;swimlaneHead=0;swimlaneBody=0;strokeColor=inherit;top=0;left=0;bottom=0;right=0;collapsible=0;dropTarget=0;fillColor=none;points=[[0,0.5],[1,0.5]];portConstraint=eastwest;" vertex="1" parent="gao_oj5QHQ_gCxG6J7-x-2">
          <mxGeometry y="160" width="670" height="40" as="geometry" />
        </mxCell>
        <mxCell id="gao_oj5QHQ_gCxG6J7-x-20" value="执行" style="shape=partialRectangle;html=1;whiteSpace=wrap;connectable=0;strokeColor=inherit;overflow=hidden;fillColor=none;top=0;left=0;bottom=0;right=0;pointerEvents=1;" vertex="1" parent="gao_oj5QHQ_gCxG6J7-x-19">
          <mxGeometry width="100" height="40" as="geometry">
            <mxRectangle width="100" height="40" as="alternateBounds" />
          </mxGeometry>
        </mxCell>
        <mxCell id="gao_oj5QHQ_gCxG6J7-x-21" value="" style="shape=partialRectangle;html=1;whiteSpace=wrap;connectable=0;strokeColor=inherit;overflow=hidden;fillColor=none;top=0;left=0;bottom=0;right=0;pointerEvents=1;" vertex="1" parent="gao_oj5QHQ_gCxG6J7-x-19">
          <mxGeometry x="100" width="299" height="40" as="geometry">
            <mxRectangle width="299" height="40" as="alternateBounds" />
          </mxGeometry>
        </mxCell>
        <mxCell id="gao_oj5QHQ_gCxG6J7-x-22" value="" style="shape=partialRectangle;html=1;whiteSpace=wrap;connectable=0;strokeColor=inherit;overflow=hidden;fillColor=none;top=0;left=0;bottom=0;right=0;pointerEvents=1;" vertex="1" parent="gao_oj5QHQ_gCxG6J7-x-19">
          <mxGeometry x="399" width="271" height="40" as="geometry">
            <mxRectangle width="271" height="40" as="alternateBounds" />
          </mxGeometry>
        </mxCell>
        <mxCell id="gao_oj5QHQ_gCxG6J7-x-23" value="" style="shape=tableRow;horizontal=0;startSize=0;swimlaneHead=0;swimlaneBody=0;strokeColor=inherit;top=0;left=0;bottom=0;right=0;collapsible=0;dropTarget=0;fillColor=none;points=[[0,0.5],[1,0.5]];portConstraint=eastwest;" vertex="1" parent="gao_oj5QHQ_gCxG6J7-x-2">
          <mxGeometry y="200" width="670" height="40" as="geometry" />
        </mxCell>
        <mxCell id="gao_oj5QHQ_gCxG6J7-x-24" value="执行" style="shape=partialRectangle;html=1;whiteSpace=wrap;connectable=0;strokeColor=inherit;overflow=hidden;fillColor=none;top=0;left=0;bottom=0;right=0;pointerEvents=1;" vertex="1" parent="gao_oj5QHQ_gCxG6J7-x-23">
          <mxGeometry width="100" height="40" as="geometry">
            <mxRectangle width="100" height="40" as="alternateBounds" />
          </mxGeometry>
        </mxCell>
        <mxCell id="gao_oj5QHQ_gCxG6J7-x-25" value="" style="shape=partialRectangle;html=1;whiteSpace=wrap;connectable=0;strokeColor=inherit;overflow=hidden;fillColor=none;top=0;left=0;bottom=0;right=0;pointerEvents=1;" vertex="1" parent="gao_oj5QHQ_gCxG6J7-x-23">
          <mxGeometry x="100" width="299" height="40" as="geometry">
            <mxRectangle width="299" height="40" as="alternateBounds" />
          </mxGeometry>
        </mxCell>
        <mxCell id="gao_oj5QHQ_gCxG6J7-x-26" value="" style="shape=partialRectangle;html=1;whiteSpace=wrap;connectable=0;strokeColor=inherit;overflow=hidden;fillColor=none;top=0;left=0;bottom=0;right=0;pointerEvents=1;" vertex="1" parent="gao_oj5QHQ_gCxG6J7-x-23">
          <mxGeometry x="399" width="271" height="40" as="geometry">
            <mxRectangle width="271" height="40" as="alternateBounds" />
          </mxGeometry>
        </mxCell>
        <mxCell id="gao_oj5QHQ_gCxG6J7-x-27" value="" style="shape=tableRow;horizontal=0;startSize=0;swimlaneHead=0;swimlaneBody=0;strokeColor=inherit;top=0;left=0;bottom=0;right=0;collapsible=0;dropTarget=0;fillColor=none;points=[[0,0.5],[1,0.5]];portConstraint=eastwest;" vertex="1" parent="gao_oj5QHQ_gCxG6J7-x-2">
          <mxGeometry y="240" width="670" height="40" as="geometry" />
        </mxCell>
        <mxCell id="gao_oj5QHQ_gCxG6J7-x-28" value="持久" style="shape=partialRectangle;html=1;whiteSpace=wrap;connectable=0;strokeColor=inherit;overflow=hidden;fillColor=none;top=0;left=0;bottom=0;right=0;pointerEvents=1;" vertex="1" parent="gao_oj5QHQ_gCxG6J7-x-27">
          <mxGeometry width="100" height="40" as="geometry">
            <mxRectangle width="100" height="40" as="alternateBounds" />
          </mxGeometry>
        </mxCell>
        <mxCell id="gao_oj5QHQ_gCxG6J7-x-29" value="" style="shape=partialRectangle;html=1;whiteSpace=wrap;connectable=0;strokeColor=inherit;overflow=hidden;fillColor=none;top=0;left=0;bottom=0;right=0;pointerEvents=1;" vertex="1" parent="gao_oj5QHQ_gCxG6J7-x-27">
          <mxGeometry x="100" width="299" height="40" as="geometry">
            <mxRectangle width="299" height="40" as="alternateBounds" />
          </mxGeometry>
        </mxCell>
        <mxCell id="gao_oj5QHQ_gCxG6J7-x-30" value="" style="shape=partialRectangle;html=1;whiteSpace=wrap;connectable=0;strokeColor=inherit;overflow=hidden;fillColor=none;top=0;left=0;bottom=0;right=0;pointerEvents=1;" vertex="1" parent="gao_oj5QHQ_gCxG6J7-x-27">
          <mxGeometry x="399" width="271" height="40" as="geometry">
            <mxRectangle width="271" height="40" as="alternateBounds" />
          </mxGeometry>
        </mxCell>
        <mxCell id="gao_oj5QHQ_gCxG6J7-x-31" value="" style="shape=tableRow;horizontal=0;startSize=0;swimlaneHead=0;swimlaneBody=0;strokeColor=inherit;top=0;left=0;bottom=0;right=0;collapsible=0;dropTarget=0;fillColor=none;points=[[0,0.5],[1,0.5]];portConstraint=eastwest;" vertex="1" parent="gao_oj5QHQ_gCxG6J7-x-2">
          <mxGeometry y="280" width="670" height="40" as="geometry" />
        </mxCell>
        <mxCell id="gao_oj5QHQ_gCxG6J7-x-32" value="权限提升" style="shape=partialRectangle;html=1;whiteSpace=wrap;connectable=0;strokeColor=inherit;overflow=hidden;fillColor=none;top=0;left=0;bottom=0;right=0;pointerEvents=1;" vertex="1" parent="gao_oj5QHQ_gCxG6J7-x-31">
          <mxGeometry width="100" height="40" as="geometry">
            <mxRectangle width="100" height="40" as="alternateBounds" />
          </mxGeometry>
        </mxCell>
        <mxCell id="gao_oj5QHQ_gCxG6J7-x-33" value="" style="shape=partialRectangle;html=1;whiteSpace=wrap;connectable=0;strokeColor=inherit;overflow=hidden;fillColor=none;top=0;left=0;bottom=0;right=0;pointerEvents=1;" vertex="1" parent="gao_oj5QHQ_gCxG6J7-x-31">
          <mxGeometry x="100" width="299" height="40" as="geometry">
            <mxRectangle width="299" height="40" as="alternateBounds" />
          </mxGeometry>
        </mxCell>
        <mxCell id="gao_oj5QHQ_gCxG6J7-x-34" value="" style="shape=partialRectangle;html=1;whiteSpace=wrap;connectable=0;strokeColor=inherit;overflow=hidden;fillColor=none;top=0;left=0;bottom=0;right=0;pointerEvents=1;" vertex="1" parent="gao_oj5QHQ_gCxG6J7-x-31">
          <mxGeometry x="399" width="271" height="40" as="geometry">
            <mxRectangle width="271" height="40" as="alternateBounds" />
          </mxGeometry>
        </mxCell>
        <mxCell id="gao_oj5QHQ_gCxG6J7-x-35" value="" style="shape=tableRow;horizontal=0;startSize=0;swimlaneHead=0;swimlaneBody=0;strokeColor=inherit;top=0;left=0;bottom=0;right=0;collapsible=0;dropTarget=0;fillColor=none;points=[[0,0.5],[1,0.5]];portConstraint=eastwest;" vertex="1" parent="gao_oj5QHQ_gCxG6J7-x-2">
          <mxGeometry y="320" width="670" height="40" as="geometry" />
        </mxCell>
        <mxCell id="gao_oj5QHQ_gCxG6J7-x-36" value="绕过防御" style="shape=partialRectangle;html=1;whiteSpace=wrap;connectable=0;strokeColor=inherit;overflow=hidden;fillColor=none;top=0;left=0;bottom=0;right=0;pointerEvents=1;" vertex="1" parent="gao_oj5QHQ_gCxG6J7-x-35">
          <mxGeometry width="100" height="40" as="geometry">
            <mxRectangle width="100" height="40" as="alternateBounds" />
          </mxGeometry>
        </mxCell>
        <mxCell id="gao_oj5QHQ_gCxG6J7-x-37" value="" style="shape=partialRectangle;html=1;whiteSpace=wrap;connectable=0;strokeColor=inherit;overflow=hidden;fillColor=none;top=0;left=0;bottom=0;right=0;pointerEvents=1;" vertex="1" parent="gao_oj5QHQ_gCxG6J7-x-35">
          <mxGeometry x="100" width="299" height="40" as="geometry">
            <mxRectangle width="299" height="40" as="alternateBounds" />
          </mxGeometry>
        </mxCell>
        <mxCell id="gao_oj5QHQ_gCxG6J7-x-38" value="" style="shape=partialRectangle;html=1;whiteSpace=wrap;connectable=0;strokeColor=inherit;overflow=hidden;fillColor=none;top=0;left=0;bottom=0;right=0;pointerEvents=1;" vertex="1" parent="gao_oj5QHQ_gCxG6J7-x-35">
          <mxGeometry x="399" width="271" height="40" as="geometry">
            <mxRectangle width="271" height="40" as="alternateBounds" />
          </mxGeometry>
        </mxCell>
        <mxCell id="gao_oj5QHQ_gCxG6J7-x-39" value="" style="shape=tableRow;horizontal=0;startSize=0;swimlaneHead=0;swimlaneBody=0;strokeColor=inherit;top=0;left=0;bottom=0;right=0;collapsible=0;dropTarget=0;fillColor=none;points=[[0,0.5],[1,0.5]];portConstraint=eastwest;" vertex="1" parent="gao_oj5QHQ_gCxG6J7-x-2">
          <mxGeometry y="360" width="670" height="40" as="geometry" />
        </mxCell>
        <mxCell id="gao_oj5QHQ_gCxG6J7-x-40" value="凭证获取" style="shape=partialRectangle;html=1;whiteSpace=wrap;connectable=0;strokeColor=inherit;overflow=hidden;fillColor=none;top=0;left=0;bottom=0;right=0;pointerEvents=1;" vertex="1" parent="gao_oj5QHQ_gCxG6J7-x-39">
          <mxGeometry width="100" height="40" as="geometry">
            <mxRectangle width="100" height="40" as="alternateBounds" />
          </mxGeometry>
        </mxCell>
        <mxCell id="gao_oj5QHQ_gCxG6J7-x-41" value="" style="shape=partialRectangle;html=1;whiteSpace=wrap;connectable=0;strokeColor=inherit;overflow=hidden;fillColor=none;top=0;left=0;bottom=0;right=0;pointerEvents=1;" vertex="1" parent="gao_oj5QHQ_gCxG6J7-x-39">
          <mxGeometry x="100" width="299" height="40" as="geometry">
            <mxRectangle width="299" height="40" as="alternateBounds" />
          </mxGeometry>
        </mxCell>
        <mxCell id="gao_oj5QHQ_gCxG6J7-x-42" value="" style="shape=partialRectangle;html=1;whiteSpace=wrap;connectable=0;strokeColor=inherit;overflow=hidden;fillColor=none;top=0;left=0;bottom=0;right=0;pointerEvents=1;" vertex="1" parent="gao_oj5QHQ_gCxG6J7-x-39">
          <mxGeometry x="399" width="271" height="40" as="geometry">
            <mxRectangle width="271" height="40" as="alternateBounds" />
          </mxGeometry>
        </mxCell>
        <mxCell id="gao_oj5QHQ_gCxG6J7-x-43" value="" style="shape=tableRow;horizontal=0;startSize=0;swimlaneHead=0;swimlaneBody=0;strokeColor=inherit;top=0;left=0;bottom=0;right=0;collapsible=0;dropTarget=0;fillColor=none;points=[[0,0.5],[1,0.5]];portConstraint=eastwest;" vertex="1" parent="gao_oj5QHQ_gCxG6J7-x-2">
          <mxGeometry y="400" width="670" height="40" as="geometry" />
        </mxCell>
        <mxCell id="gao_oj5QHQ_gCxG6J7-x-44" value="发现" style="shape=partialRectangle;html=1;whiteSpace=wrap;connectable=0;strokeColor=inherit;overflow=hidden;fillColor=none;top=0;left=0;bottom=0;right=0;pointerEvents=1;" vertex="1" parent="gao_oj5QHQ_gCxG6J7-x-43">
          <mxGeometry width="100" height="40" as="geometry">
            <mxRectangle width="100" height="40" as="alternateBounds" />
          </mxGeometry>
        </mxCell>
        <mxCell id="gao_oj5QHQ_gCxG6J7-x-45" value="" style="shape=partialRectangle;html=1;whiteSpace=wrap;connectable=0;strokeColor=inherit;overflow=hidden;fillColor=none;top=0;left=0;bottom=0;right=0;pointerEvents=1;" vertex="1" parent="gao_oj5QHQ_gCxG6J7-x-43">
          <mxGeometry x="100" width="299" height="40" as="geometry">
            <mxRectangle width="299" height="40" as="alternateBounds" />
          </mxGeometry>
        </mxCell>
        <mxCell id="gao_oj5QHQ_gCxG6J7-x-46" value="" style="shape=partialRectangle;html=1;whiteSpace=wrap;connectable=0;strokeColor=inherit;overflow=hidden;fillColor=none;top=0;left=0;bottom=0;right=0;pointerEvents=1;" vertex="1" parent="gao_oj5QHQ_gCxG6J7-x-43">
          <mxGeometry x="399" width="271" height="40" as="geometry">
            <mxRectangle width="271" height="40" as="alternateBounds" />
          </mxGeometry>
        </mxCell>
        <mxCell id="gao_oj5QHQ_gCxG6J7-x-47" value="" style="shape=tableRow;horizontal=0;startSize=0;swimlaneHead=0;swimlaneBody=0;strokeColor=inherit;top=0;left=0;bottom=0;right=0;collapsible=0;dropTarget=0;fillColor=none;points=[[0,0.5],[1,0.5]];portConstraint=eastwest;" vertex="1" parent="gao_oj5QHQ_gCxG6J7-x-2">
          <mxGeometry y="440" width="670" height="40" as="geometry" />
        </mxCell>
        <mxCell id="gao_oj5QHQ_gCxG6J7-x-48" value="横线移动" style="shape=partialRectangle;html=1;whiteSpace=wrap;connectable=0;strokeColor=inherit;overflow=hidden;fillColor=none;top=0;left=0;bottom=0;right=0;pointerEvents=1;" vertex="1" parent="gao_oj5QHQ_gCxG6J7-x-47">
          <mxGeometry width="100" height="40" as="geometry">
            <mxRectangle width="100" height="40" as="alternateBounds" />
          </mxGeometry>
        </mxCell>
        <mxCell id="gao_oj5QHQ_gCxG6J7-x-49" value="" style="shape=partialRectangle;html=1;whiteSpace=wrap;connectable=0;strokeColor=inherit;overflow=hidden;fillColor=none;top=0;left=0;bottom=0;right=0;pointerEvents=1;" vertex="1" parent="gao_oj5QHQ_gCxG6J7-x-47">
          <mxGeometry x="100" width="299" height="40" as="geometry">
            <mxRectangle width="299" height="40" as="alternateBounds" />
          </mxGeometry>
        </mxCell>
        <mxCell id="gao_oj5QHQ_gCxG6J7-x-50" value="" style="shape=partialRectangle;html=1;whiteSpace=wrap;connectable=0;strokeColor=inherit;overflow=hidden;fillColor=none;top=0;left=0;bottom=0;right=0;pointerEvents=1;" vertex="1" parent="gao_oj5QHQ_gCxG6J7-x-47">
          <mxGeometry x="399" width="271" height="40" as="geometry">
            <mxRectangle width="271" height="40" as="alternateBounds" />
          </mxGeometry>
        </mxCell>
        <mxCell id="gao_oj5QHQ_gCxG6J7-x-51" value="" style="shape=tableRow;horizontal=0;startSize=0;swimlaneHead=0;swimlaneBody=0;strokeColor=inherit;top=0;left=0;bottom=0;right=0;collapsible=0;dropTarget=0;fillColor=none;points=[[0,0.5],[1,0.5]];portConstraint=eastwest;" vertex="1" parent="gao_oj5QHQ_gCxG6J7-x-2">
          <mxGeometry y="480" width="670" height="40" as="geometry" />
        </mxCell>
        <mxCell id="gao_oj5QHQ_gCxG6J7-x-52" value="搜集" style="shape=partialRectangle;html=1;whiteSpace=wrap;connectable=0;strokeColor=inherit;overflow=hidden;fillColor=none;top=0;left=0;bottom=0;right=0;pointerEvents=1;" vertex="1" parent="gao_oj5QHQ_gCxG6J7-x-51">
          <mxGeometry width="100" height="40" as="geometry">
            <mxRectangle width="100" height="40" as="alternateBounds" />
          </mxGeometry>
        </mxCell>
        <mxCell id="gao_oj5QHQ_gCxG6J7-x-53" value="" style="shape=partialRectangle;html=1;whiteSpace=wrap;connectable=0;strokeColor=inherit;overflow=hidden;fillColor=none;top=0;left=0;bottom=0;right=0;pointerEvents=1;" vertex="1" parent="gao_oj5QHQ_gCxG6J7-x-51">
          <mxGeometry x="100" width="299" height="40" as="geometry">
            <mxRectangle width="299" height="40" as="alternateBounds" />
          </mxGeometry>
        </mxCell>
        <mxCell id="gao_oj5QHQ_gCxG6J7-x-54" value="" style="shape=partialRectangle;html=1;whiteSpace=wrap;connectable=0;strokeColor=inherit;overflow=hidden;fillColor=none;top=0;left=0;bottom=0;right=0;pointerEvents=1;" vertex="1" parent="gao_oj5QHQ_gCxG6J7-x-51">
          <mxGeometry x="399" width="271" height="40" as="geometry">
            <mxRectangle width="271" height="40" as="alternateBounds" />
          </mxGeometry>
        </mxCell>
        <mxCell id="gao_oj5QHQ_gCxG6J7-x-55" value="" style="shape=tableRow;horizontal=0;startSize=0;swimlaneHead=0;swimlaneBody=0;strokeColor=inherit;top=0;left=0;bottom=0;right=0;collapsible=0;dropTarget=0;fillColor=none;points=[[0,0.5],[1,0.5]];portConstraint=eastwest;" vertex="1" parent="gao_oj5QHQ_gCxG6J7-x-2">
          <mxGeometry y="520" width="670" height="40" as="geometry" />
        </mxCell>
        <mxCell id="gao_oj5QHQ_gCxG6J7-x-56" value="命令控制" style="shape=partialRectangle;html=1;whiteSpace=wrap;connectable=0;strokeColor=inherit;overflow=hidden;fillColor=none;top=0;left=0;bottom=0;right=0;pointerEvents=1;" vertex="1" parent="gao_oj5QHQ_gCxG6J7-x-55">
          <mxGeometry width="100" height="40" as="geometry">
            <mxRectangle width="100" height="40" as="alternateBounds" />
          </mxGeometry>
        </mxCell>
        <mxCell id="gao_oj5QHQ_gCxG6J7-x-57" value="" style="shape=partialRectangle;html=1;whiteSpace=wrap;connectable=0;strokeColor=inherit;overflow=hidden;fillColor=none;top=0;left=0;bottom=0;right=0;pointerEvents=1;" vertex="1" parent="gao_oj5QHQ_gCxG6J7-x-55">
          <mxGeometry x="100" width="299" height="40" as="geometry">
            <mxRectangle width="299" height="40" as="alternateBounds" />
          </mxGeometry>
        </mxCell>
        <mxCell id="gao_oj5QHQ_gCxG6J7-x-58" value="" style="shape=partialRectangle;html=1;whiteSpace=wrap;connectable=0;strokeColor=inherit;overflow=hidden;fillColor=none;top=0;left=0;bottom=0;right=0;pointerEvents=1;" vertex="1" parent="gao_oj5QHQ_gCxG6J7-x-55">
          <mxGeometry x="399" width="271" height="40" as="geometry">
            <mxRectangle width="271" height="40" as="alternateBounds" />
          </mxGeometry>
        </mxCell>
        <mxCell id="gao_oj5QHQ_gCxG6J7-x-59" value="" style="shape=tableRow;horizontal=0;startSize=0;swimlaneHead=0;swimlaneBody=0;strokeColor=inherit;top=0;left=0;bottom=0;right=0;collapsible=0;dropTarget=0;fillColor=none;points=[[0,0.5],[1,0.5]];portConstraint=eastwest;" vertex="1" parent="gao_oj5QHQ_gCxG6J7-x-2">
          <mxGeometry y="560" width="670" height="40" as="geometry" />
        </mxCell>
        <mxCell id="gao_oj5QHQ_gCxG6J7-x-60" value="信息窃取手段" style="shape=partialRectangle;html=1;whiteSpace=wrap;connectable=0;strokeColor=inherit;overflow=hidden;fillColor=none;top=0;left=0;bottom=0;right=0;pointerEvents=1;" vertex="1" parent="gao_oj5QHQ_gCxG6J7-x-59">
          <mxGeometry width="100" height="40" as="geometry">
            <mxRectangle width="100" height="40" as="alternateBounds" />
          </mxGeometry>
        </mxCell>
        <mxCell id="gao_oj5QHQ_gCxG6J7-x-61" value="" style="shape=partialRectangle;html=1;whiteSpace=wrap;connectable=0;strokeColor=inherit;overflow=hidden;fillColor=none;top=0;left=0;bottom=0;right=0;pointerEvents=1;" vertex="1" parent="gao_oj5QHQ_gCxG6J7-x-59">
          <mxGeometry x="100" width="299" height="40" as="geometry">
            <mxRectangle width="299" height="40" as="alternateBounds" />
          </mxGeometry>
        </mxCell>
        <mxCell id="gao_oj5QHQ_gCxG6J7-x-62" value="" style="shape=partialRectangle;html=1;whiteSpace=wrap;connectable=0;strokeColor=inherit;overflow=hidden;fillColor=none;top=0;left=0;bottom=0;right=0;pointerEvents=1;" vertex="1" parent="gao_oj5QHQ_gCxG6J7-x-59">
          <mxGeometry x="399" width="271" height="40" as="geometry">
            <mxRectangle width="271" height="40" as="alternateBounds" />
          </mxGeometry>
        </mxCell>
        <mxCell id="gao_oj5QHQ_gCxG6J7-x-63" value="" style="shape=tableRow;horizontal=0;startSize=0;swimlaneHead=0;swimlaneBody=0;strokeColor=inherit;top=0;left=0;bottom=0;right=0;collapsible=0;dropTarget=0;fillColor=none;points=[[0,0.5],[1,0.5]];portConstraint=eastwest;" vertex="1" parent="gao_oj5QHQ_gCxG6J7-x-2">
          <mxGeometry y="600" width="670" height="40" as="geometry" />
        </mxCell>
        <mxCell id="gao_oj5QHQ_gCxG6J7-x-64" value="影响" style="shape=partialRectangle;html=1;whiteSpace=wrap;connectable=0;strokeColor=inherit;overflow=hidden;fillColor=none;top=0;left=0;bottom=0;right=0;pointerEvents=1;" vertex="1" parent="gao_oj5QHQ_gCxG6J7-x-63">
          <mxGeometry width="100" height="40" as="geometry">
            <mxRectangle width="100" height="40" as="alternateBounds" />
          </mxGeometry>
        </mxCell>
        <mxCell id="gao_oj5QHQ_gCxG6J7-x-65" value="" style="shape=partialRectangle;html=1;whiteSpace=wrap;connectable=0;strokeColor=inherit;overflow=hidden;fillColor=none;top=0;left=0;bottom=0;right=0;pointerEvents=1;" vertex="1" parent="gao_oj5QHQ_gCxG6J7-x-63">
          <mxGeometry x="100" width="299" height="40" as="geometry">
            <mxRectangle width="299" height="40" as="alternateBounds" />
          </mxGeometry>
        </mxCell>
        <mxCell id="gao_oj5QHQ_gCxG6J7-x-66" value="" style="shape=partialRectangle;html=1;whiteSpace=wrap;connectable=0;strokeColor=inherit;overflow=hidden;fillColor=none;top=0;left=0;bottom=0;right=0;pointerEvents=1;" vertex="1" parent="gao_oj5QHQ_gCxG6J7-x-63">
          <mxGeometry x="399" width="271" height="40" as="geometry">
            <mxRectangle width="271" height="40" as="alternateBounds" />
          </mxGeometry>
        </mxCell>
      </root>
    </mxGraphModel>
  </diagram>
</mxfile>
